<svg viewBox="0 0 16 16"><path d="M4,7V6L5,5H6V4L5,3H2L1,7 2,8 3,9v1l1,1v1 1l1,1V13L6,12V11L7,10 6,9 5,8H4 3V7ZM8,5 9,6 10,5h1l1,1h1v0l1,2V3H10V4H9ZM9,6 8,7v1l1,1h1l1,1v1 1l1,1 1,-1V9L14,8 13,7 12,6h-1-1z" style="marker:none" overflow="visible" fill="#2e3436" opacity=".5"/><path d="M8,0C3.5935666,0 0,3.5936 0,8c0,4.406433 3.5935666,8 8,8 4.406433,0 8,-3.593567 8,-8C16,3.5936 12.406433,6.2949046e-8 8,0Zm0,2c3.325553,0 6,2.6744469 6,6 0,3.325553-2.674447,6-6,6C4.6744469,14 2,11.325553 2,8 2,4.6744469 4.6744469,2 8,2Z" style="marker:none" overflow="visible" fill="#2e3436"/></svg>
