<svg viewBox="0 0 16 16"><path fill="#2e3436" d="M2 0C.892 0 0 .892 0 2v9c0 1.108.892 2 2 2h2v3l3-3h7c1.108 0 2-.892 2-2V2c0-1.108-.892-2-2-2Zm6 2c1.6450096 0 3 1.3549904 3 3 0 1.2931586-.84267 2.3951413-2 2.8125V8c0 .554-.446 1-1 1s-1-.446-1-1V7c0-.554.446-1 1-1 .5641294 0 1-.4358706 1-1s-.4358706-1-1-1-1 .4358706-1 1c0 .5522847-.4477153 1-1 1s-1-.4477153-1-1c-.0000391-.06624.0065-.1323196.019531-.1972656C5.1243286 3.2496564 6.4224088 2 8 2m0 7.5c.5522847 0 1 .4477153 1 1 0 .552285-.4477153 1-1 1s-1-.447715-1-1c0-.5522847.4477153-1 1-1" overflow="visible" style="marker:none"/></svg>