<svg viewBox="0 0 16 16"><g fill="#222"><path d="M9.492188.140625C8.640625-.0234375 7.769531-.0429688 6.917969.0742188 5.21875.304688 3.589844 1.082031 2.316406 2.367188-.230469 4.933594-.734375 8.90625 1.085938 12.03125c1.824218 3.121094 5.53125 4.636719 9.019531 3.683594 3.488281-.949219 5.90625-4.132813 5.890625-7.75 0-.550782-.453125-1-1.003906-.996094-.550782.003906-.996094.453125-.996094 1.003906.015625 2.722656-1.792969 5.097656-4.417969 5.816406-2.625.714844-5.390625-.417968-6.761719-2.765624-1.371094-2.351563-.996094-5.316407.921875-7.25 1.914063-1.929688 4.875-2.335938 7.238281-.984376.476563.273438 1.089844.109376 1.363282-.371093.273437-.480469.109375-1.089844-.371094-1.367188-.785156-.445312-1.621094-.75-2.476562-.910156m0 0"/><path d="M15.753906 3.65625c.175782-.199219.261719-.460938.246094-.722656-.019531-.265625-.140625-.511719-.339844-.6875-.199218-.175782-.460937-.265625-.726562-.246094-.265625.015625-.511719.140625-.6875.339844L7.949219 9.535156 5.707031 7.289062c-.390625-.390624-1.023437-.390624-1.414062 0C4.105469 7.476562 4 7.734375 4 8s.105469.519531.292969.707031l3 3c.195312.195313.464843.300781.742187.292969.277344-.011719.535156-.132812.71875-.34375zm0 0"/></g></svg>