<?xml version="1.0" encoding="UTF-8"?><svg width="256px" height="256px" viewBox="0 0 10 10" xmlns="http://www.w3.org/2000/svg" ><path style="color:#000000;fill:#ffff00" d="m 13.17142,5 a 5,5 0 0 1 -5,5 5,5 0 0 1 -5,-5 5,5 0 0 1 5,-5 5,5 0 0 1 5,5 z" transform="matrix(0.95,0,0,0.95,-2.763,0.25)" /><path style="color:#000000;fill:#000000" d="M 5,0 C 2.24,0 0,2.24 0,5 0,7.76 2.24,10 5,10 7.76,10 10,7.76 10,5 10,2.24 7.76,0 5,0 Z m 0,0.5 c 2.5,0 4.5,2 4.5,4.5 0,2.5 -2,4.5 -4.5,4.5 -2.5,0 -4.5,-2 -4.5,-4.5 0,-2.5 2,-4.5 4.5,-4.5 z M 3.7,2.93 A 0.47,0.47 0 0 0 3.23,3.40 0.47,0.47 0 0 0 3.71,3.88 0.47,0.47 0 0 0 4.18,3.40 0.47,0.47 0 0 0 3.71,2.93 Z m 2.58,0 A 0.47,0.47 0 0 0 5.82,3.4 0.47,0.47 0 0 0 6.29,3.88 0.47,0.47 0 0 0 6.77,3.4 0.47,0.47 0 0 0 6.3,2.93 Z M 2.37,5.32 c 0,0.94 0.5,1.80 1.31,2.27 0.81,0.47 1.81,0.47 2.63,0 C 7.12,7.13 7.63,6.26 7.63,5.32 h -0.50 c 0,0.76 -0.41,1.46 -1.06,1.84 -0.66,0.38 -1.47,0.38 -2.12,0 C 3.28,6.78 2.88,6 2.88,5.32 Z"/></svg>